<svg width="33" height="35" viewBox="0 0 33 35" fill="none" xmlns="http://www.w3.org/2000/svg">
<g clip-path="url(#clip0_341_14511)" filter="url(#filter0_d_341_14511)">
<path d="M3.95142 0C2.9468 0 1.94218 0.201735 1.18314 0.874187C0.0445677 1.90528 -0.0447317 3.31743 -8.20169e-05 4.72957C0.0668926 5.82791 1.85288 5.82791 1.80823 4.72957C1.76358 3.83297 1.62963 2.64497 2.5003 2.03977C2.90215 1.74837 3.41562 1.68113 3.95142 1.65871V6.34346C2.9468 6.34346 1.94218 6.54519 1.18314 7.21764C0.0445677 8.27115 -0.0447317 9.6833 -8.20169e-05 11.0954C0.0668926 12.1938 1.85288 12.1938 1.80823 11.0954C1.76358 10.1988 1.62963 9.01085 2.5003 8.40564C2.90215 8.11424 3.41562 8.02458 3.95142 8.02458V12.7093C2.9468 12.7093 1.94218 12.9111 1.18314 13.5835C0.0445677 14.6146 -0.0447317 16.0492 -8.20169e-05 17.4613C0.0668926 18.5597 1.85288 18.5597 1.80823 17.4613C1.76358 16.5647 1.62963 15.3767 2.5003 14.7715C2.90215 14.4801 3.41562 14.3905 3.95142 14.3905V19.0752C2.9468 19.0752 1.94218 19.2769 1.18314 19.9494C0.0445677 20.9805 -0.0447317 22.3926 -8.20169e-05 23.8272C0.0668926 24.9255 1.85288 24.9255 1.80823 23.8272C1.76358 22.9306 1.62963 21.7426 2.5003 21.1374C2.90215 20.846 3.41562 20.7563 3.95142 20.7563V25.4411C2.9468 25.4411 1.94218 25.6428 1.18314 26.3153C0.0445677 27.3463 -0.0447317 28.7585 -8.20169e-05 30.1706C0.0668926 31.269 1.85288 31.269 1.80823 30.1706C1.76358 29.274 1.62963 28.086 2.5003 27.4808C2.90215 27.1894 3.41562 27.0998 3.95142 27.0998V30.5293H28.9999V0H3.95142ZM8.39407 3.18294H24.1777V14.7715H8.39407V3.18294ZM24.1777 27.7722H9.10846C8.72894 27.7722 8.39407 27.4584 8.39407 27.055C8.39407 26.6515 8.70661 26.3377 9.10846 26.3377H24.1777C24.5573 26.3377 24.8921 26.6515 24.8921 27.055C24.8921 27.4584 24.5796 27.7722 24.1777 27.7722ZM24.1777 23.8944H9.10846C8.72894 23.8944 8.39407 23.5806 8.39407 23.1772C8.39407 22.7737 8.70661 22.4599 9.10846 22.4599H24.1777C24.5573 22.4599 24.8921 22.7737 24.8921 23.1772C24.8921 23.5806 24.5796 23.8944 24.1777 23.8944ZM24.1777 20.0166H9.10846C8.72894 20.0166 8.39407 19.7028 8.39407 19.2993C8.39407 18.8959 8.70661 18.5821 9.10846 18.5821H24.1777C24.5573 18.5821 24.8921 18.8959 24.8921 19.2993C24.8921 19.7028 24.5796 20.0166 24.1777 20.0166Z" fill="#0EB0F1"/>
</g>
<defs>
<filter id="filter0_d_341_14511" x="0" y="0" width="33" height="35" filterUnits="userSpaceOnUse" color-interpolation-filters="sRGB">
<feFlood flood-opacity="0" result="BackgroundImageFix"/>
<feColorMatrix in="SourceAlpha" type="matrix" values="0 0 0 0 0 0 0 0 0 0 0 0 0 0 0 0 0 0 127 0" result="hardAlpha"/>
<feOffset dx="2" dy="2"/>
<feGaussianBlur stdDeviation="1"/>
<feComposite in2="hardAlpha" operator="out"/>
<feColorMatrix type="matrix" values="0 0 0 0 1 0 0 0 0 1 0 0 0 0 1 0 0 0 1 0"/>
<feBlend mode="normal" in2="BackgroundImageFix" result="effect1_dropShadow_341_14511"/>
<feBlend mode="normal" in="SourceGraphic" in2="effect1_dropShadow_341_14511" result="shape"/>
</filter>
<clipPath id="clip0_341_14511">
<rect width="29" height="31" fill="white"/>
</clipPath>
</defs>
</svg>
