<svg width="43" height="43" viewBox="0 0 43 43" fill="none" xmlns="http://www.w3.org/2000/svg">
<path d="M34.2954 0.072998H8.45544C3.96321 0.072998 0.315674 3.70599 0.315674 8.1803V33.9172C0.315674 38.3915 3.96321 42.0245 8.45544 42.0245H34.2954C38.7876 42.0245 42.4351 38.3915 42.4351 33.9172V8.1803C42.4351 3.70599 38.7876 0.072998 34.2954 0.072998ZM36.6375 4.89149H37.5589V5.8093V12.0045H30.4558V4.92973H36.6759L36.6375 4.89149ZM15.3666 16.7083C16.7104 14.8344 18.8989 13.6489 21.3562 13.6489C23.8135 13.6489 26.002 14.8727 27.3458 16.7083C27.4994 16.9377 27.653 17.1672 27.8066 17.3966C28.4209 18.4674 28.7665 19.6911 28.7665 20.9914C28.7665 25.045 25.4261 28.3721 21.3562 28.3721C17.2863 28.3721 13.9459 25.045 13.9459 20.9914C13.9459 19.6911 14.2915 18.4674 14.9058 17.3966C15.0594 17.1672 15.1746 16.8995 15.3666 16.7083ZM38.3269 33.8789C38.3269 36.097 36.5223 37.8943 34.2954 37.8943H8.45544C6.22852 37.8943 4.42395 36.097 4.42395 33.8789V16.7083H10.7208C10.5672 17.0907 10.4136 17.4731 10.2984 17.8938C10.0296 18.8881 9.87606 19.9206 9.87606 21.0296C9.87606 27.3395 15.021 32.5022 21.3946 32.5022C27.7682 32.5022 32.9131 27.3778 32.9131 21.0296C32.9131 19.9588 32.7596 18.8881 32.4524 17.8938C32.3372 17.4731 32.1836 17.0907 32.0301 16.7083H38.3269V33.8789Z" fill="#1C1C1C"/>
</svg>
