<svg width="18" height="25" viewBox="0 0 18 25" fill="none" xmlns="http://www.w3.org/2000/svg">
<g clip-path="url(#clip0_413_40611)">
<path d="M5.44443 0.0320148C5.60316 0.0641485 5.76189 0.112349 5.873 0.160549C6.14284 0.289084 6.14284 0.401552 6.23808 0.658621L8.39681 6.50695C8.39681 6.50695 8.55554 6.95682 8.11109 7.32636L7.09522 7.8405L4.47617 0.610421C4.26982 0.0480816 4.90474 -0.0483194 5.44443 0.0320148Z" fill="#0EB0F1"/>
<path d="M17.9047 21.867C17.9682 21.7223 17.9841 21.5456 18 21.4331C18.0317 21.1439 17.9206 21.0797 17.7619 20.8547L13.8413 16.0347C13.8413 16.0347 13.5238 15.6652 13 15.874L12.0476 16.5006L16.9206 22.4293C17.3016 22.8952 17.6984 22.3811 17.9047 21.867Z" fill="#0EB0F1"/>
<path d="M3.80959 0.46582L6.63499 8.0815C6.63499 8.0815 5.68261 8.4671 5.61911 8.78844C5.11118 11.1021 8.20641 16.8701 10.4921 17.3199C10.8096 17.3842 11.635 16.7576 11.635 16.7576L16.6985 23.0558C16.6985 23.0558 13.635 25.3694 12.508 24.9517C6.87308 22.863 -0.936442 9.15798 0.0953036 3.19718C0.301653 1.99217 3.80959 0.46582 3.80959 0.46582Z" fill="#0EB0F1"/>
</g>
<defs>
<clipPath id="clip0_413_40611">
<rect width="18" height="25" fill="white"/>
</clipPath>
</defs>
</svg>
