<svg width="80" height="88" viewBox="0 0 80 88" fill="none" xmlns="http://www.w3.org/2000/svg">
<path d="M58.3308 32.3654V39.0288C56.8965 38.7644 55.4109 38.6058 53.8741 38.6058C52.6446 38.6058 51.4664 38.7115 50.3394 38.8702V32.3654H44.2946L49.2124 23.5865L54.1302 14.8077L59.048 23.5865L63.9658 32.3654H58.4333H58.3308ZM74.4675 17.5577H80L75.0822 8.77885L70.1644 0L65.2465 8.77885L60.3287 17.5577H66.3735V41.4615C69.4472 43.101 72.1622 45.3221 74.365 48.0192V17.5577H74.4675ZM54.8474 41.3558C67.4493 41.3558 77.6948 51.774 77.6948 64.6779C77.6948 77.5817 67.4493 88 54.8474 88C42.2455 88 32 77.5288 32 64.625C32 51.7212 42.2455 41.3029 54.8474 41.3029V41.3558ZM54.8474 83.0288C64.7855 83.0288 72.8282 74.8317 72.8282 64.6779C72.8282 54.524 64.7855 46.3269 54.8474 46.3269C44.9093 46.3269 36.8666 54.524 36.8666 64.6779C36.8666 74.8317 44.9093 83.0288 54.8474 83.0288ZM61.7631 66.5817C61.5069 65.8942 61.0971 65.3654 60.6361 64.8894C60.175 64.4135 59.6628 64.0433 59.048 63.726C58.4333 63.4087 57.8698 63.1442 57.2551 62.8798C56.6403 62.6154 56.0256 62.4038 55.4621 62.1923C54.8474 61.9808 54.3351 61.7163 53.8741 61.4519C53.413 61.1875 53.0544 60.8702 52.7471 60.5C52.4397 60.1298 52.3372 59.6538 52.3372 59.125C52.3372 58.7548 52.3885 58.4375 52.5422 58.1731C52.6446 57.8558 52.8495 57.6442 53.1057 57.4327C53.3618 57.2212 53.7204 57.0625 54.1302 56.9567C54.54 56.851 55.0523 56.7981 55.6158 56.7981C56.2818 56.7981 56.8452 56.851 57.3575 57.0096C57.8698 57.1683 58.3821 57.3269 58.7919 57.4856C59.2017 57.6442 59.5603 57.8029 59.8164 57.9615C60.0726 58.1202 60.3287 58.1731 60.4824 58.1731C60.5848 58.1731 60.6361 58.1731 60.6873 58.1202C60.7385 58.1202 60.7898 58.0144 60.841 57.8558C60.841 57.75 60.8922 57.5385 60.9434 57.3269C60.9434 57.1154 60.9434 56.7981 60.9434 56.4279C60.9434 56.1635 60.9434 55.899 60.9434 55.7404C60.9434 55.5288 60.9434 55.3702 60.8922 55.2115C60.8922 55.0529 60.841 54.9471 60.7898 54.8413C60.7898 54.7356 60.6873 54.6298 60.5848 54.524C60.4824 54.4183 60.3287 54.3125 60.0726 54.2067C59.8164 54.101 59.5603 53.9423 59.2529 53.8365C58.9456 53.7308 58.6382 53.625 58.2796 53.5721C57.921 53.4663 57.6137 53.4135 57.3063 53.3606L57.6649 50.0817C57.6649 50.0817 57.6649 49.8173 57.6649 49.7115C57.6649 49.6058 57.5624 49.5 57.4088 49.4471C57.3063 49.3942 57.1014 49.3413 56.8965 49.2885C56.6403 49.2885 56.3842 49.2885 56.0256 49.2885C55.7183 49.2885 55.5133 49.2885 55.3084 49.2885C55.1035 49.2885 55.0011 49.3413 54.8986 49.3942C54.7962 49.3942 54.6937 49.5 54.6937 49.5529C54.6937 49.6058 54.6425 49.7115 54.6425 49.7644L54.2839 53.2548C53.3106 53.3606 52.4397 53.5721 51.6713 53.9423C50.9029 54.2596 50.2369 54.7356 49.7247 55.2644C49.2124 55.7933 48.8026 56.4279 48.4952 57.1683C48.1878 57.9087 48.0854 58.7019 48.0854 59.5481C48.0854 60.5 48.2391 61.3462 48.4952 62.0337C48.7513 62.7212 49.1612 63.3029 49.6222 63.7788C50.0832 64.2548 50.5955 64.6779 51.2102 64.9952C51.7737 65.3125 52.3885 65.6298 53.0032 65.8413C53.6179 66.1058 54.1814 66.3173 54.7962 66.5288C55.3597 66.7404 55.8719 67.0048 56.333 67.2692C56.794 67.5336 57.1526 67.851 57.46 68.2212C57.7161 68.5913 57.8698 69.0673 57.8698 69.5962C57.8698 70.4423 57.5624 71.1298 56.8965 71.6058C56.2305 72.0817 55.2572 72.3462 53.9765 72.3462C53.1569 72.3462 52.3885 72.2404 51.7737 72.0817C51.159 71.9231 50.5955 71.7115 50.1857 71.5C49.7247 71.2885 49.3661 71.0769 49.1099 70.9183C48.8026 70.7596 48.5977 70.6538 48.444 70.6538C48.3415 70.6538 48.2391 70.6538 48.1366 70.7067C48.0342 70.7067 47.9829 70.8654 47.9317 70.9712C47.8805 71.1298 47.8292 71.2885 47.8292 71.5529C47.8292 71.8173 47.8292 72.1346 47.8292 72.5577C47.8292 73.0865 47.8292 73.4567 47.9317 73.7212C47.9829 73.9856 48.0854 74.1971 48.1878 74.3029C48.3415 74.4615 48.4952 74.5673 48.7513 74.726C49.0075 74.8846 49.3148 74.9904 49.6734 75.149C50.032 75.3077 50.3906 75.4135 50.8517 75.5192C51.3127 75.625 51.7225 75.7308 52.2348 75.7837L51.8762 79.3269C51.8762 79.3269 51.8762 79.5913 51.8762 79.6971C51.8762 79.8029 51.9787 79.9086 52.1323 79.9615C52.286 80.0144 52.4397 80.0673 52.6446 80.1202C52.8495 80.1202 53.1569 80.1202 53.5155 80.1202C53.7716 80.1202 54.0278 80.1202 54.2327 80.1202C54.4376 80.1202 54.54 80.0673 54.6937 80.0144C54.7962 80.0144 54.8986 79.9087 54.8986 79.8558C54.8986 79.8029 54.9498 79.6971 54.9498 79.5913L55.3084 75.8365C56.3842 75.7308 57.3575 75.5192 58.2796 75.149C59.1505 74.7788 59.9189 74.3558 60.5336 73.774C61.1483 73.1923 61.6606 72.5048 62.0192 71.7115C62.3778 70.9183 62.5315 70.0192 62.5315 69.0144C62.5315 68.0625 62.3778 67.2692 62.1217 66.5817H61.7631Z" fill="#0EB0F1"/>
<path d="M24.9383 60.2066L30.0727 60.2066C29.8689 61.4118 29.7467 62.66 29.7467 63.9512C29.7467 64.9842 29.8282 65.9742 29.9504 66.9211L24.9383 66.9211L24.9383 72L18.174 67.868L11.4097 63.736L18.174 59.604L24.9383 55.472L24.9383 60.1205L24.9383 60.2066ZM13.5286 46.6485L13.5286 42L6.76432 46.132L-9.27489e-07 50.264L6.76432 54.396L13.5286 58.528L13.5286 53.4491L31.9471 53.4491C33.2104 50.8666 34.9218 48.5854 37 46.7346L13.5286 46.7346L13.5286 46.6485Z" fill="#0EB0F1"/>
</svg>
