<svg width="477" height="292" viewBox="0 0 477 292" fill="none" xmlns="http://www.w3.org/2000/svg">
<g opacity="0.4" clip-path="url(#clip0_828_1465)">
<path opacity="0.4" fill-rule="evenodd" clip-rule="evenodd" d="M476.986 98.7324L254 140L433.53 0L439.49 57.0572L476.986 98.7324Z" fill="#0EB0F1"/>
<path opacity="0.4" fill-rule="evenodd" clip-rule="evenodd" d="M439.49 57.0571L254 140L477 98.7324L439.49 57.0571Z" fill="#0EB0F1"/>
</g>
<g opacity="0.4" clip-path="url(#clip1_828_1465)">
<path d="M129.701 212.826C149.296 204.745 158.6 182.379 150.484 162.87C142.368 143.361 119.904 134.097 100.31 142.178C80.7164 150.259 71.4117 172.625 79.5278 192.134C87.6439 211.642 110.107 220.907 129.701 212.826Z" fill="#0EB0F1"/>
<path d="M115 63C146.743 63 173.784 74.243 196.137 96.7155C218.708 118.958 230 145.882 230 177.5V292H115C83.2571 292 56.0936 280.879 33.5094 258.636C11.1698 236.15 0 209.105 0 177.5C0 145.895 11.1698 118.958 33.5094 96.7155C56.0936 74.243 83.2435 63 115 63ZM183.785 177.5C183.785 158.532 177.086 142.377 163.674 129.037C150.276 115.697 134.038 109.014 115 109.014C95.9624 109.014 79.7241 115.684 66.3258 129.037C52.6829 142.377 45.8614 158.545 45.8614 177.5C45.8614 196.455 52.6829 212.623 66.3258 225.963C79.7241 239.546 95.9624 246.338 115 246.338H183.785V177.5Z" fill="#0EB0F1"/>
</g>
<defs>
<clipPath id="clip0_828_1465">
<rect width="223" height="140" fill="white" transform="translate(254)"/>
</clipPath>
<clipPath id="clip1_828_1465">
<rect width="230" height="229" fill="white" transform="translate(0 63)"/>
</clipPath>
</defs>
</svg>
