<svg width="29" height="30" viewBox="0 0 29 30" fill="none" xmlns="http://www.w3.org/2000/svg">
<g clip-path="url(#clip0_367_17628)">
<path d="M14.2595 19.2373C16.5795 19.2373 18.5034 17.3446 18.5034 15C18.5034 12.6554 16.6078 10.7627 14.2595 10.7627C11.9112 10.7627 10.0156 12.6554 10.0156 15C10.0156 17.3446 11.9112 19.2373 14.2595 19.2373Z" fill="#0EB0F1"/>
<path d="M24.7561 19.2373C27.0761 19.2373 29 17.3446 29 15C29 12.6554 27.1044 10.7627 24.7561 10.7627C22.4078 10.7627 20.5122 12.6554 20.5122 15C20.5122 17.3446 22.4078 19.2373 24.7561 19.2373Z" fill="#0EB0F1"/>
<path d="M24.7561 29.8869C27.0761 29.8869 29 27.9943 29 25.6496C29 23.305 27.1044 21.4124 24.7561 21.4124C22.4078 21.4124 20.5122 23.305 20.5122 25.6496C20.5122 27.9943 22.4078 29.8869 24.7561 29.8869Z" fill="#0EB0F1"/>
<path d="M24.7561 8.72873C27.0761 8.72873 29 6.83607 29 4.49144C29 2.14681 27.0761 0.25415 24.7561 0.25415C22.4361 0.25415 20.5122 2.14681 20.5122 4.49144C20.5122 6.83607 22.4078 8.72873 24.7561 8.72873Z" fill="#0EB0F1"/>
<path d="M4.2439 21.3843C1.89561 21.3843 0 23.2769 0 25.6216C0 27.9662 1.89561 29.8589 4.2439 29.8589C6.5922 29.8589 8.4878 27.9662 8.4878 25.6216C8.4878 23.2769 6.5922 21.3843 4.2439 21.3843Z" fill="#0EB0F1"/>
<path d="M14.2595 8.47458C16.5795 8.47458 18.5034 6.58192 18.5034 4.23729C18.5034 1.89266 16.6078 0 14.2595 0C11.9112 0 10.0156 1.89266 10.0156 4.23729C10.0156 6.58192 11.9112 8.47458 14.2595 8.47458Z" fill="#0EB0F1"/>
<path d="M14.2595 30C16.5795 30 18.5034 28.1073 18.5034 25.7627C18.5034 23.418 16.6078 21.5254 14.2595 21.5254C11.9112 21.5254 10.0156 23.418 10.0156 25.7627C10.0156 28.1073 11.9112 30 14.2595 30Z" fill="#0EB0F1"/>
<path d="M4.2439 0.25415C1.89561 0.25415 0 2.14681 0 4.49144C0 6.83607 1.89561 8.72873 4.2439 8.72873C6.5922 8.72873 8.4878 6.83607 8.4878 4.49144C8.4878 2.14681 6.5639 0.25415 4.2439 0.25415Z" fill="#0EB0F1"/>
<path d="M4.2439 10.6497C1.89561 10.6497 0 12.5423 0 14.8869C0 17.2316 1.89561 19.1242 4.2439 19.1242C6.5922 19.1242 8.4878 17.2316 8.4878 14.8869C8.4878 12.5423 6.5922 10.6497 4.2439 10.6497Z" fill="#0EB0F1"/>
</g>
<defs>
<clipPath id="clip0_367_17628">
<rect width="29" height="30" fill="white"/>
</clipPath>
</defs>
</svg>
