<svg width="27" height="17" viewBox="0 0 27 17" fill="none" xmlns="http://www.w3.org/2000/svg">
<path d="M1.03017 0.307409C1.03017 0.307409 0.958296 0.189189 0.982254 0.141901C1.00621 0.0946135 1.05413 0.0473256 1.126 0.0473256H25.8261V0.0236816C25.898 0.0236816 25.9459 0.0709695 25.9698 0.118257C25.9698 0.189189 25.9698 0.260121 25.9219 0.283765L13.5838 10.1906C13.5838 10.1906 13.512 10.2379 13.488 10.2379C13.4641 10.2379 13.4161 10.2379 13.3922 10.1906L1.03017 0.307409ZM8.79237 8.03898C8.79237 8.03898 8.79237 7.9444 8.7205 7.92076L0.263531 1.27681C0.263531 1.27681 0.143744 1.22952 0.0958296 1.27681C0.0239574 1.30045 0 1.34774 0 1.39503V15.5814C0 15.5814 0.0479148 15.6996 0.119787 15.7233C0.119787 15.7233 0.167702 15.7233 0.191659 15.7233C0.239574 15.7233 0.263531 15.7233 0.311446 15.676L8.76841 8.10991C8.76841 8.10991 8.81633 8.03898 8.81633 7.99169L8.79237 8.03898ZM17.465 8.7483C17.465 8.7483 17.3212 8.70101 17.2493 8.7483L13.488 11.8693L9.72671 8.77194C9.72671 8.77194 9.58296 8.72466 9.51109 8.77194L0.862467 16.74C0.862467 16.74 0.790594 16.8582 0.814552 16.9055C0.838509 16.9764 0.886424 17 0.958296 17H26.0417C26.0417 17 26.1615 16.9291 26.1854 16.8818C26.2094 16.8109 26.1854 16.74 26.1375 16.7163L17.441 8.77194L17.465 8.7483ZM27 15.5341V1.37139C27 1.37139 26.9521 1.25317 26.8802 1.22952C26.8323 1.20588 26.7604 1.22952 26.7125 1.22952L18.2555 7.89712C18.2555 7.89712 18.2076 7.96805 18.1837 8.01534C18.1837 8.06262 18.1837 8.10991 18.2316 8.13356L26.7125 15.676C26.7125 15.676 26.7844 15.7233 26.8323 15.7233C26.8323 15.7233 27 15.6523 27 15.5578C27 15.5578 27 15.5578 27 15.5341Z" fill="#0EB0F1"/>
</svg>
