<svg width="36" height="35" viewBox="0 0 36 35" fill="none" xmlns="http://www.w3.org/2000/svg">
<g clip-path="url(#clip0_341_14515)">
<path d="M27.3913 0H8.6087C3.8419 0 0 3.93705 0 8.74097V18.6017C0 23.4417 3.8419 27.3426 8.6087 27.3426H11.2767L16.7905 34.4221H16.8261C17.1107 34.7833 17.5375 34.9639 17.9644 34.9639C18.3913 34.9639 18.7826 34.7833 19.1028 34.4582L24.7589 27.3426H27.4269C32.1581 27.3426 36.0356 23.4056 36.0356 18.6017V8.74097C36.0356 3.90093 32.1581 0 27.4269 0L27.3913 0ZM7.04348 17.4097V8.37977C7.04348 5.56244 9.28458 3.25077 12.0949 3.25077H29.3123C32.087 3.25077 34.3636 5.56244 34.3636 8.37977V17.4097C34.3636 20.227 32.1225 22.5387 29.3123 22.5387H26.2174C25.8261 22.5387 25.4704 22.7193 25.1858 23.0083L20.668 28.7513L16.2569 23.0444C15.9723 22.7193 15.6166 22.5387 15.2253 22.5387H12.1304C9.35573 22.5387 7.07905 20.227 7.07905 17.4097H7.04348Z" fill="#0EB0F1"/>
</g>
<defs>
<clipPath id="clip0_341_14515">
<rect width="36" height="35" fill="white"/>
</clipPath>
</defs>
</svg>
