<svg width="45" height="44" viewBox="0 0 45 44" fill="none" xmlns="http://www.w3.org/2000/svg">
<g clip-path="url(#clip0_406_39812)">
<path d="M45.0001 22.2361C45.0001 20.1327 43.3944 18.4585 41.3663 18.4585H29.2818C29.1973 18.0292 29.155 17.6 29.2395 17.1278C29.4508 15.9258 30.2113 13.5219 31.4367 11.2897C32.324 9.6585 32.7043 1.88875 31.0564 0.686798C29.4085 -0.515153 27.1691 -0.085885 26.0282 1.67411L24.0001 9.4868L19.9437 15.6683C19.2254 16.7844 15.4226 21.4205 15.4226 21.4205V42.1112L21.7606 44.0429H35.7466C37.7325 44.0429 39.3804 42.3258 39.3804 40.2653C39.3804 39.7931 39.2958 39.3209 39.1268 38.8917C40.6902 38.5053 41.8733 37.0029 41.8733 35.2C41.8733 34.0839 41.4085 33.0966 40.6902 32.4097C42.3381 32.0663 43.6057 30.5209 43.6057 28.6751C43.6057 27.559 43.1409 26.5717 42.4226 25.8848C43.9437 25.4556 45.0846 23.9961 45.0846 22.2361H45.0001Z" fill="#0EB0F1"/>
<path d="M13.1831 19.5746H0V44H13.1831V19.5746Z" fill="#0EB0F1"/>
</g>
<defs>
<clipPath id="clip0_406_39812">
<rect width="45" height="44" fill="white"/>
</clipPath>
</defs>
</svg>
