<svg width="43" height="44" viewBox="0 0 43 44" fill="none" xmlns="http://www.w3.org/2000/svg">
<path d="M0.830977 15.0429H9.70024V43.4949H0.830977V15.0429ZM5.28483 0.893311C8.12607 0.893311 10.4298 3.18783 10.4298 6.01774C10.4298 8.84765 8.12607 11.1422 5.28483 11.1422C2.44359 11.1422 0.139893 8.84765 0.139893 6.01774C0.139893 3.18783 2.44359 0.893311 5.28483 0.893311ZM15.306 43.4949H24.1752V29.4218C24.1752 25.7124 24.8663 22.1176 29.5121 22.1176C34.158 22.1176 34.1195 26.3625 34.1195 29.6513V43.4949H42.9888V27.8922C42.9888 20.2438 41.3378 14.3163 32.315 14.3163C27.9763 14.3163 25.0967 16.6873 23.9064 18.9053H23.7912V15.0046H15.2675V43.4567L15.306 43.4949Z" fill="#1C1C1C"/>
</svg>
