<svg width="32" height="54" viewBox="0 0 32 54" fill="none" xmlns="http://www.w3.org/2000/svg">
<path d="M8.51807 14.3341H23.5045C24.2789 14.3341 24.985 13.968 25.4177 13.3961C25.7366 12.9843 25.9416 12.4581 25.9416 11.8862V10.5135C25.9416 10.5135 25.9416 10.422 25.9416 10.3763C25.8732 9.07224 24.8028 8.06563 23.5045 8.06563H20.4298V7.42506C20.4298 6.07529 19.3366 4.97717 17.9928 4.97717H14.0298C12.686 4.97717 11.5928 6.07529 11.5928 7.42506V8.06563H8.51807C7.21984 8.06563 6.14938 9.09512 6.08105 10.3763C6.08105 10.422 6.08105 10.4678 6.08105 10.5135V11.8862C6.08105 12.4581 6.28604 12.9843 6.6049 13.3961C7.06041 13.968 7.74369 14.3341 8.51807 14.3341ZM16.0113 7.12766C16.8996 7.12766 17.6284 7.85974 17.6284 8.75196C17.6284 9.64418 16.8996 10.3763 16.0113 10.3763C15.123 10.3763 14.3942 9.64418 14.3942 8.75196C14.3942 7.85974 15.123 7.12766 16.0113 7.12766Z" fill="#0EB0F1"/>
<path d="M7.10611 21.5175H24.3702C25.0534 21.5175 25.5773 20.9685 25.5773 20.305C25.5773 19.6416 25.0307 19.0925 24.3702 19.0925H7.10611C6.42284 19.0925 5.87622 19.6416 5.87622 20.305C5.87622 20.9685 6.42284 21.5175 7.10611 21.5175Z" fill="#0EB0F1"/>
<path d="M29.4035 10.3991H26.9437C26.9437 10.3991 26.9437 10.4906 26.9437 10.5364V11.909C26.9437 12.4352 26.8298 12.9614 26.6476 13.4189H27.1259C27.9458 13.4189 29.0391 14.0824 29.0391 14.8831V38.2181H25.0989C22.8441 38.2181 20.9992 40.0712 20.9992 42.3361V46.4082H4.44121C3.62128 46.4082 2.98356 45.7448 2.98356 44.9441V14.8602C2.98356 14.0366 4.0768 13.396 4.89673 13.396H5.37502C5.17004 12.9385 5.07893 12.4123 5.07893 11.8861V10.5135C5.07893 10.5135 5.07893 10.422 5.07893 10.3762H2.61915C1.18427 10.3762 0.0227051 11.543 0.0227051 12.9843V47.392C0.0227051 48.8333 1.18427 50 2.61915 50H29.4035C30.8384 50 31.9999 48.8333 31.9999 47.392V13.0071C31.9999 11.5658 30.8384 10.3991 29.4035 10.3991ZM23.4362 45.7448V42.3361C23.4362 41.421 24.1878 40.666 25.0989 40.666H28.4241L23.4362 45.7448Z" fill="#0EB0F1"/>
<path d="M7.10611 33.2995H24.3702C25.0534 33.2995 25.5773 32.7504 25.5773 32.0869C25.5773 31.4235 25.0307 30.8516 24.3702 30.8516H7.10611C6.42284 30.8516 5.87622 31.4006 5.87622 32.0869C5.87622 32.7733 6.42284 33.2995 7.10611 33.2995Z" fill="#0EB0F1"/>
<path d="M7.10611 27.4199H24.3702C25.0534 27.4199 25.5773 26.8708 25.5773 26.2074C25.5773 25.5439 25.0307 24.9949 24.3702 24.9949H7.10611C6.42284 24.9949 5.87622 25.5439 5.87622 26.2074C5.87622 26.8708 6.42284 27.4199 7.10611 27.4199Z" fill="#0EB0F1"/>
<path d="M7.10611 39.1789H17.4463C18.1296 39.1789 18.6534 38.6299 18.6534 37.9664C18.6534 37.303 18.1068 36.7539 17.4463 36.7539H7.10611C6.42284 36.7539 5.87622 37.303 5.87622 37.9664C5.87622 38.6299 6.42284 39.1789 7.10611 39.1789Z" fill="#0EB0F1"/>
</svg>
