<svg width="49" height="46" viewBox="0 0 49 46" fill="none" xmlns="http://www.w3.org/2000/svg">
<g clip-path="url(#clip0_341_14534)">
<path fill-rule="evenodd" clip-rule="evenodd" d="M34.023 23.069H47.3164C48.2284 23.069 49.0001 23.8621 49.0001 24.7586V32.7931C49.0001 33.7241 48.2284 34.4828 47.3164 34.4828H34.023C33.111 34.4828 32.3394 33.7241 32.3394 32.7931V24.7586C32.3394 23.8276 33.111 23.069 34.023 23.069Z" fill="white"/>
<path fill-rule="evenodd" clip-rule="evenodd" d="M37.1096 25.7931C38.7581 25.7931 40.091 27.1379 40.091 28.7931C40.091 30.4483 38.7581 31.8276 37.1096 31.8276C35.461 31.8276 34.1282 30.4828 34.1282 28.7931C34.1282 27.1035 35.461 25.7931 37.1096 25.7931Z" fill="#0EB0F1"/>
<path fill-rule="evenodd" clip-rule="evenodd" d="M4.4895 10.2069C10.3471 6.82759 16.2397 3.41379 22.0972 0.0344817C22.6584 -0.103449 23.0793 0.0344817 23.4301 0.448275C24.1667 1.72414 24.9032 2.96552 25.6047 4.24138C18.5546 6.24138 11.5045 8.2069 4.4895 10.2069Z" fill="white"/>
<path fill-rule="evenodd" clip-rule="evenodd" d="M8.55835 10.2069C17.713 7.86207 26.8325 5.55172 35.9871 3.20689C36.7588 3.20689 37.32 3.5862 37.6357 4.24138C38.1267 6.20689 38.6528 8.20689 39.179 10.1724C28.937 10.1724 18.7652 10.1724 8.55835 10.1724V10.2069Z" fill="white"/>
<path fill-rule="evenodd" clip-rule="evenodd" d="M45.9835 12.4483C45.4223 11.931 44.6858 11.5862 43.879 11.5862H2.94631C2.13958 11.5862 1.36793 11.931 0.876879 12.4483C0.315676 13 0 13.7586 0 14.5862V43.0345C0 43.8621 0.315676 44.6207 0.876879 45.1379C1.40301 45.6897 2.13958 46.0345 2.94631 46.0345H43.879C44.6858 46.0345 45.4223 45.6897 45.9835 45.1379C46.5097 44.6207 46.8604 43.8621 46.8604 43.0345V36.6897H34.0229C32.9706 36.6897 32.0236 36.2759 31.3221 35.5517C30.6206 34.8621 30.1997 33.8621 30.1997 32.8276V24.7931C30.1997 23.7586 30.6206 22.7586 31.3221 22.069C32.0236 21.3793 32.9706 20.931 34.0229 20.931H46.8604V14.5862C46.8604 13.7586 46.5097 13 45.9835 12.4483ZM21.0802 34.931C20.7645 35.6207 20.3436 36.2414 19.7824 36.7241C19.2212 37.2414 18.5548 37.6207 17.7831 37.931C17.0115 38.2414 16.1346 38.4138 15.1875 38.5173L14.8719 41.7586C14.8719 41.7586 14.8719 41.8966 14.8017 41.9655C14.7316 42.0345 14.6965 42.069 14.5913 42.1035C14.486 42.1379 14.3808 42.1724 14.2054 42.2069C14.0301 42.2414 13.8196 42.2414 13.5741 42.2414C13.2584 42.2414 13.0129 42.2414 12.8024 42.2069C12.592 42.2069 12.4517 42.1379 12.3465 42.069C12.2412 42 12.1711 41.931 12.136 41.8621C12.1009 41.7586 12.1009 41.6552 12.136 41.5517L12.4517 38.4828C12.0308 38.4138 11.6099 38.3448 11.2591 38.2414C10.8733 38.1379 10.5225 38.0345 10.2419 37.931C9.96135 37.8276 9.68074 37.6897 9.43522 37.5862C9.22477 37.4483 9.04939 37.3448 8.94417 37.2414C8.83894 37.1379 8.73372 36.9655 8.69864 36.7241C8.66356 36.4828 8.62849 36.1724 8.62849 35.7241C8.62849 35.3793 8.62849 35.1035 8.62849 34.8621C8.62849 34.6552 8.69864 34.4828 8.73372 34.3448C8.76879 34.2414 8.83894 34.1379 8.90909 34.1035C8.97924 34.069 9.08447 34.0345 9.15462 34.0345C9.29492 34.0345 9.47029 34.1035 9.71582 34.2759C9.96134 34.4483 10.277 34.5862 10.6628 34.7586C11.0487 34.931 11.5047 35.1035 12.0659 35.2414C12.6271 35.3793 13.2584 35.4828 14.0301 35.4828C15.1875 35.4828 16.0644 35.2759 16.6256 34.8276C17.1868 34.3793 17.4674 33.7931 17.4674 33.069C17.4674 32.5862 17.3622 32.1724 17.1167 31.8621C16.8712 31.5517 16.5555 31.2759 16.1346 31.0345C15.7137 30.7931 15.2577 30.5862 14.7666 30.4138C14.2405 30.2414 13.7144 30.0345 13.1883 29.8276C12.6621 29.6207 12.136 29.3793 11.6099 29.1035C11.0837 28.8276 10.6278 28.4828 10.2419 28.069C9.82104 27.6552 9.50537 27.1379 9.25984 26.5517C9.01432 25.9655 8.90909 25.2414 8.90909 24.4138C8.90909 23.6552 9.04939 22.9655 9.29492 22.3448C9.54044 21.7241 9.8912 21.1724 10.3822 20.7241C10.8382 20.2759 11.4345 19.8966 12.1009 19.5862C12.7674 19.3104 13.539 19.1035 14.4159 19L14.7316 15.9655C14.7316 15.9655 14.7316 15.8276 14.8017 15.7586C14.8017 15.6897 14.9069 15.6552 15.0122 15.6207C15.1174 15.5862 15.2226 15.5517 15.398 15.5172C15.5734 15.5172 15.7487 15.5172 16.0293 15.5172C16.345 15.5172 16.5905 15.5172 16.801 15.5517C17.0115 15.5517 17.1518 15.6207 17.257 15.6897C17.3622 15.7586 17.4324 15.8276 17.4674 15.8966C17.5025 15.9655 17.5025 16.1035 17.5025 16.2069L17.1868 19.069C17.4674 19.1035 17.748 19.1724 18.0637 19.2414C18.3794 19.3104 18.66 19.3793 18.9406 19.4828C19.2212 19.5862 19.4667 19.6897 19.6772 19.7931C19.8876 19.8966 20.063 20 20.1331 20.069C20.2033 20.1379 20.2734 20.2414 20.3436 20.3104C20.3787 20.3793 20.4137 20.5172 20.4488 20.6207C20.4488 20.7586 20.4839 20.8966 20.4839 21.069C20.4839 21.2414 20.4839 21.4483 20.4839 21.6897C20.4839 22 20.4839 22.2414 20.4839 22.4483C20.4839 22.6552 20.4488 22.7931 20.4137 22.8966C20.3787 23 20.3436 23.069 20.2734 23.1035C20.2384 23.1379 20.1682 23.1724 20.0981 23.1724C19.9578 23.1724 19.7824 23.1035 19.5369 22.9655C19.2913 22.8276 18.9757 22.6897 18.6249 22.5517C18.2742 22.4138 17.8533 22.2759 17.3622 22.1379C16.9062 22 16.3801 21.931 15.8189 21.931C15.2928 21.931 14.8719 21.9655 14.486 22.069C14.1002 22.1724 13.8196 22.3104 13.5741 22.4828C13.3286 22.6552 13.1883 22.8966 13.083 23.1379C12.9778 23.3793 12.9077 23.6552 12.9077 23.9655C12.9077 24.4483 13.048 24.8276 13.2935 25.1724C13.539 25.4828 13.8898 25.7586 14.2756 26C14.6965 26.2414 15.1525 26.4483 15.6786 26.6207C16.2047 26.8276 16.7309 27 17.2921 27.2414C17.8182 27.4483 18.3794 27.6897 18.9055 27.9655C19.4316 28.2414 19.8876 28.5862 20.3085 29C20.7294 29.4138 21.0451 29.8966 21.2906 30.4828C21.5361 31.069 21.6764 31.7586 21.6764 32.5862C21.6764 33.4483 21.5361 34.2414 21.2205 34.931H21.0802Z" fill="#0EB0F1"/>
</g>
<defs>
<clipPath id="clip0_341_14534">
<rect width="49" height="46" fill="white"/>
</clipPath>
</defs>
</svg>
