<svg width="46" height="46" viewBox="0 0 46 46" fill="none" xmlns="http://www.w3.org/2000/svg">
<g clip-path="url(#clip0_341_14522)">
<path d="M25.0265 21.4104L45.2631 22.6483C45.4615 22.6483 45.6599 22.592 45.8016 22.4514C45.9433 22.3107 46.0283 22.1137 46 21.9168C45.7449 16.7119 43.7042 11.6758 40.2464 7.76512C35.4849 2.39142 28.6827 -0.422037 21.512 0.0562502C21.3703 0.0562502 21.2002 0.140654 21.0869 0.225058C21.0585 0.225058 21.0302 0.281327 21.0018 0.309461C20.8885 0.478269 20.8318 0.67521 20.8601 0.872152L24.3463 20.8196C24.4029 21.129 24.658 21.3822 24.9981 21.4104H25.0265ZM27.5773 17.8936L25.1115 3.79815C26.8404 3.99509 28.5126 4.38897 30.1281 5.03607C32.9907 6.16145 35.4565 7.90579 37.4972 10.2128C39.0277 11.929 40.2181 13.8703 41.04 15.9804C41.4085 16.9088 41.6919 17.8373 41.8903 18.7939L27.5773 17.9217V17.8936ZM5.32838 36.4061L20.9168 22.6202C21.0869 22.4514 21.1719 22.2263 21.1435 21.9731L17.544 1.46298C17.5157 1.26604 17.4023 1.09723 17.2323 0.984691C17.0622 0.872152 16.8638 0.844018 16.6654 0.900287C13.3777 1.85686 10.4017 3.48867 7.79419 5.76756C3.51446 9.56573 0.793572 14.7425 0.141693 20.3694C-0.510187 25.9963 0.963627 31.6232 4.27971 36.2654C4.39308 36.4342 4.56313 36.5468 4.76153 36.5468C4.95993 36.5468 5.15833 36.5186 5.30004 36.378L5.32838 36.4061ZM5.32838 36.4061L7.56745 39.9792C11.7905 43.8336 17.2039 45.9718 22.8724 46C28.541 46.0281 34.0111 43.9743 38.2908 40.1761C42.2021 36.7156 44.8379 31.9608 45.7165 26.8122C45.7449 26.6153 45.7166 26.4183 45.5748 26.2495C45.4615 26.0807 45.2631 25.9963 45.0647 25.9963L23.9495 24.7021C23.7511 24.7021 23.581 24.7584 23.4393 24.8709L7.59579 38.8819C7.45408 39.0226 7.36905 39.1914 7.36905 39.4165C7.36905 39.6134 7.45408 39.8104 7.59579 39.951L5.32838 36.4061Z" fill="#0EB0F1"/>
</g>
<defs>
<clipPath id="clip0_341_14522">
<rect width="46" height="46" fill="white"/>
</clipPath>
</defs>
</svg>
