<svg width="80" height="88" viewBox="0 0 80 88" fill="none" xmlns="http://www.w3.org/2000/svg">
<path d="M43.9238 17.7888H35.926V20.5976H43.9238V17.7888Z" fill="#0EB0F1"/>
<path d="M55.5996 28.5133H47.6018V31.3221H55.5996V28.5133Z" fill="#0EB0F1"/>
<path d="M67.2326 13.0225H59.2349V15.8313H67.2326V13.0225Z" fill="#0EB0F1"/>
<path d="M53.2473 56.7712H78.2243C79.0369 56.7712 79.7212 56.0903 79.7212 55.2817C79.7212 54.4731 79.0369 53.7922 78.2243 53.7922H77.1551V2.979H78.2243C79.0369 2.979 79.7212 2.29808 79.7212 1.4895C79.7212 0.680914 79.0369 0 78.2243 0H1.49691C0.684302 0 0 0.680914 0 1.4895C0 2.29808 0.684302 2.979 1.49691 2.979H2.56613V53.7496H1.49691C0.684302 53.7496 0 54.4305 0 55.2391C0 56.0477 0.684302 56.7286 1.49691 56.7286H26.4739M29.5961 56.7286H78.2243ZM75.0594 51.6218H4.66181V5.10685H75.0594V51.6643V51.6218Z" fill="#0EB0F1"/>
<path d="M32.2903 26.6833H24.2925V29.4921H32.2903V26.6833Z" fill="#0EB0F1"/>
<path d="M20.6574 24.0873H12.6597V26.8961H20.6574V24.0873Z" fill="#0EB0F1"/>
<path d="M43.9238 46.4298H35.926V21.8743H43.9238V46.4298ZM55.5569 32.5987H47.5592V46.4298H55.5569V32.5987ZM67.1901 17.3207H59.1923V46.4298H67.1901V17.3207ZM20.572 28.1728H12.5742V46.4298H20.572V28.1728ZM32.2051 30.6837H24.2074V46.3872H32.2051V30.6837Z" fill="#0EB0F1"/>
<path d="M57.9407 42.0993C59.6456 30.0736 51.2728 18.9149 39.1872 17.2184C27.1015 15.522 15.9252 23.891 14.2203 35.9168C12.5155 47.9426 20.8883 59.1013 32.9739 60.7977C45.0216 62.4941 56.198 54.1251 57.9028 42.0993H57.9407ZM33.6937 55.7461C24.298 54.389 18.0089 45.9823 19.3349 36.6331C20.6988 27.2839 29.1474 21.0637 38.5052 22.3831C47.9009 23.7402 54.19 32.0716 52.864 41.4585C51.5001 50.8077 43.0515 57.1033 33.6937 55.7838V55.7461Z" fill="#0EB0F1"/>
<path d="M72.2997 78.1389L53.8492 58.8751C51.7276 56.3116 46.9161 60.1191 49.0377 62.6826L62.9798 85.8294C63.9648 87.0358 65.3666 87.752 66.7684 87.9405C68.3974 88.1667 70.1023 87.752 71.4662 86.6211C74.0424 84.51 74.3834 80.7024 72.2618 78.1389H72.2997Z" fill="#0EB0F1"/>
</svg>
