<svg width="79" height="88" viewBox="0 0 79 88" fill="none" xmlns="http://www.w3.org/2000/svg">
<path d="M21.8333 22.0976V39.7627H39.6465C39.6465 30.0401 31.6756 22.0976 21.8333 22.0976Z" fill="#0EB0F1"/>
<path d="M17.8132 25.0419C7.97089 25.0419 0 32.9159 0 42.707C0 52.4982 7.97089 60.3722 17.8132 60.3722C27.6555 60.3722 35.6264 52.4297 35.6264 42.707H17.8132V25.0419Z" fill="#0EB0F1"/>
<path d="M78.9999 41.1049H67.135V88H78.9999V41.1049Z" fill="#0EB0F1"/>
<path d="M62.0771 56.239H50.2122V87.9322H62.0771V56.239Z" fill="#0EB0F1"/>
<path d="M45.591 73.6125H33.7261V88H45.591V73.6125Z" fill="#0EB0F1"/>
<path d="M62 21.7933C62 22.9247 61.8172 23.8774 61.3907 24.7706C60.9642 25.6637 60.4158 26.4378 59.6846 27.0333C58.9534 27.6883 58.0394 28.1646 57.0036 28.5814C55.9677 28.9387 54.81 29.2364 53.5914 29.296L53.1649 33.4046C53.1649 33.4046 53.1649 33.5832 53.1039 33.7023C53.1039 33.7618 52.9821 33.8214 52.8602 33.8809C52.7384 33.9405 52.5556 34 52.3728 34C52.129 34 51.8853 34 51.5807 34C51.1541 34 50.8495 34 50.5448 34C50.3011 34 50.1183 33.8809 49.9355 33.8214C49.7527 33.7618 49.6918 33.6427 49.6308 33.5236C49.6308 33.4046 49.6308 33.2855 49.6308 33.1664L50.0574 29.2364C49.509 29.1769 48.9606 29.0578 48.4731 28.9387C47.9857 28.8196 47.4982 28.7005 47.1326 28.5219C46.7061 28.4028 46.4014 28.2242 46.0968 28.0455C45.7921 27.8669 45.5484 27.7478 45.4265 27.5692C45.3047 27.4501 45.1828 27.2119 45.1219 26.9142C45.0609 26.6165 45 26.1997 45 25.6042C45 25.1874 45 24.8301 45 24.5324C45 24.2347 45.0609 24.056 45.1219 23.8774C45.1828 23.6988 45.2437 23.6392 45.3656 23.5797C45.4875 23.5797 45.5484 23.5201 45.7312 23.5201C45.914 23.5201 46.1577 23.6392 46.4624 23.8179C46.767 23.9965 47.1936 24.2347 47.7419 24.4729C48.2294 24.711 48.8996 24.8897 49.5699 25.1278C50.2401 25.366 51.1541 25.4256 52.129 25.4256C53.6523 25.4256 54.81 25.1278 55.5412 24.5919C56.2724 24.056 56.638 23.282 56.638 22.3888C56.638 21.7933 56.4552 21.2574 56.1505 20.8406C55.8459 20.4238 55.4194 20.0666 54.871 19.7688C54.3226 19.4711 53.7133 19.1734 53.043 18.9352C52.3728 18.697 51.7025 18.4588 50.9713 18.1611C50.2401 17.8634 49.5699 17.5657 48.8996 17.2084C48.2294 16.8511 47.6201 16.4343 47.0717 15.8984C46.5233 15.3625 46.0968 14.7075 45.7921 13.993C45.4875 13.2189 45.3047 12.3257 45.3047 11.2539C45.3047 10.3012 45.4875 9.40806 45.7921 8.63398C46.0968 7.85989 46.5842 7.14536 47.1936 6.54991C47.8029 5.95447 48.595 5.47811 49.448 5.12084C50.362 4.76357 51.3369 4.52539 52.4946 4.4063L52.8602 0.535902C52.8602 0.535902 52.8602 0.357268 52.9211 0.297723C52.9211 0.238178 53.043 0.178634 53.1649 0.119089C53.2867 0.119089 53.4695 0 53.6523 0C53.8351 0 54.1398 0 54.5054 0C54.9319 0 55.2366 0 55.5412 0C55.8459 0 56.0287 0.119089 56.1505 0.178634C56.2724 0.238178 56.3943 0.357268 56.4552 0.476357C56.5161 0.595446 56.4552 0.714536 56.4552 0.833625L56.0896 4.46585C56.4552 4.46585 56.8208 4.58494 57.2473 4.70403C57.6738 4.82312 58.0394 4.88266 58.405 5.00175C58.7706 5.12084 59.0753 5.23993 59.3799 5.35902C59.6846 5.47811 59.8674 5.5972 59.9892 5.71629C60.1111 5.83538 60.172 5.95447 60.233 6.01401C60.233 6.1331 60.3548 6.25219 60.3548 6.43082C60.3548 6.60946 60.3548 6.78809 60.4158 7.02627C60.4158 7.26445 60.4158 7.50263 60.4158 7.80035C60.4158 8.21716 60.4158 8.51489 60.4158 8.81261C60.4158 9.05079 60.4158 9.28897 60.2939 9.40806C60.2939 9.52715 60.172 9.64623 60.1111 9.70578C60.0502 9.70578 59.9893 9.76532 59.8674 9.76532C59.6846 9.76532 59.4409 9.70578 59.1362 9.52715C58.8315 9.34851 58.405 9.16988 57.9176 8.99124C57.4301 8.81261 56.8817 8.63398 56.2724 8.45534C55.6631 8.27671 54.9928 8.21716 54.2007 8.21716C53.5305 8.21716 52.9211 8.27671 52.4337 8.3958C51.9462 8.51489 51.5806 8.69352 51.276 8.9317C50.9713 9.16988 50.7276 9.4676 50.6057 9.76532C50.4839 10.063 50.362 10.4203 50.362 10.8371C50.362 11.4326 50.5448 11.9685 50.8495 12.3853C51.1541 12.8021 51.6416 13.1594 52.129 13.4571C52.6774 13.7548 53.2867 13.993 53.957 14.2907C54.6272 14.5289 55.3584 14.7671 56.0896 15.0648C56.8208 15.3625 57.491 15.6602 58.2222 16.0175C58.8925 16.3748 59.5018 16.7916 60.0502 17.3275C60.5986 17.8634 61.0251 18.4588 61.3298 19.2329C61.6344 19.9475 61.8172 20.8406 61.8172 21.9124L62 21.7933Z" fill="#0EB0F1"/>
</svg>
