<svg width="79" height="88" viewBox="0 0 79 88" fill="none" xmlns="http://www.w3.org/2000/svg">
<path d="M48.8287 9.59455C48.8287 14.8825 44.643 19.1755 39.4935 19.1755C34.3439 19.1755 30.1582 14.8825 30.1582 9.59455C30.1582 4.30664 34.3571 0 39.4935 0C44.6298 0 48.8287 4.29302 48.8287 9.59455Z" fill="#0EB0F1"/>
<path d="M52.539 23.2504H45.3428L39.6122 31.9864L33.8817 23.2504H26.461C24.1899 23.2504 22.3149 25.1584 22.3149 27.5026V50.017C22.3149 53.2879 24.8633 55.9591 28.0323 56.0818V82.017C28.0323 85.3015 30.6467 88 33.8421 88C36.6413 88 38.9916 85.9285 39.5462 83.2164C40.1008 85.9285 42.4511 88 45.2371 88C48.4325 88 51.0469 85.3015 51.0469 82.017V56.0818C54.1763 55.9319 56.685 53.2743 56.685 50.0307V27.5162C56.685 25.1721 54.8233 23.2641 52.539 23.2641V23.2504Z" fill="#0EB0F1"/>
<path d="M64.6466 23.3186C68.9511 23.3186 72.437 19.7342 72.437 15.3186C72.437 10.9029 68.9511 7.30494 64.6466 7.30494C60.3421 7.30494 56.8562 10.8893 56.8562 15.3186C56.8562 19.7479 60.3289 23.3186 64.6466 23.3186Z" fill="#0EB0F1"/>
<path d="M14.3529 23.3186C18.6574 23.3186 22.1433 19.7342 22.1433 15.3186C22.1433 10.9029 18.6706 7.30494 14.3529 7.30494C10.0352 7.30494 6.5625 10.8893 6.5625 15.3186C6.5625 19.7479 10.0352 23.3186 14.3529 23.3186Z" fill="#0EB0F1"/>
<path d="M23.9785 59.2572C20.5851 57.6218 18.2612 54.1192 18.2612 50.017V27.5026C18.2612 27.23 18.314 26.971 18.3536 26.7257H3.45946C1.55808 26.7257 0 28.3066 0 30.2692V49.0767C0 51.8024 2.13905 54.0375 4.77986 54.1465V75.7888C4.77986 78.5417 6.95852 80.7768 9.62574 80.7768C11.9761 80.7768 13.9171 79.0732 14.3792 76.7973C14.8413 79.0732 16.8087 80.7768 19.1458 80.7768C21.747 80.7768 23.8729 78.6508 23.9785 75.9932V59.2572Z" fill="#0EB0F1"/>
<path d="M75.5276 26.7257H60.607C60.6334 26.971 60.6862 27.2436 60.6862 27.5026V50.017C60.6862 54.0511 58.3887 57.5673 55.0481 59.2027V75.7888C55.0481 78.5417 57.24 80.7768 59.894 80.7768C62.2443 80.7768 64.1985 79.0732 64.6606 76.7973C65.1228 79.0732 67.0902 80.7768 69.4141 80.7768C72.0945 80.7768 74.2732 78.5281 74.2732 75.7888V54.1329C76.8876 53.9966 79.0002 51.7888 79.0002 49.0767V30.2692C79.0002 28.3066 77.4289 26.7257 75.5408 26.7257H75.5276Z" fill="#0EB0F1"/>
</svg>
